<?xml version="1.0" encoding="UTF-8"?>
<svg id="Layer_1" xmlns="http://www.w3.org/2000/svg" version="1.1" viewBox="0 0 128 128">
  <!-- Generator: Adobe Illustrator 29.4.0, SVG Export Plug-In . SVG Version: 2.1.0 Build 152)  -->
  <defs>
    <style>
      .st0 {
        fill: #46bda9;
      }

      .st0, .st1, .st2 {
        stroke: #523e2d;
        stroke-miterlimit: 10;
        stroke-width: 6.32px;
      }

      .st1 {
        fill: #bd4848;
      }

      .st2 {
        fill: #67bd48;
      }
    </style>
  </defs>
  <path class="st2" d="M101.9,43.15c0,2.29-.2,4.52-.61,6.7-2.26,12.76-10.92,23.31-22.54,28.23-4.54,1.92-9.53,2.98-14.76,2.98s-10.07-1.04-14.55-2.91c-12.09-5.02-21.01-16.12-22.94-29.49-.27-1.79-.4-3.64-.4-5.51,0-20.94,16.97-37.9,37.9-37.9s37.9,16.97,37.9,37.9Z"/>
  <path class="st1" d="M63.15,114.5c-6.18,4.41-13.73,6.99-21.9,6.99-20.94,0-37.9-16.97-37.9-37.9,0-15.69,9.54-29.16,23.15-34.92,1.93,13.37,10.85,24.47,22.94,29.49-.4,2.17-.61,4.41-.61,6.7,0,12.02,5.58,22.72,14.31,29.65Z"/>
  <path class="st0" d="M124.65,84.85c0,20.94-16.97,37.9-37.9,37.9-8.92,0-17.12-3.08-23.59-8.25-8.73-6.94-14.31-17.64-14.31-29.65,0-2.29.2-4.52.61-6.7,4.49,1.87,9.4,2.91,14.55,2.91s10.22-1.06,14.76-2.98c11.62-4.91,20.28-15.46,22.54-28.23,13.71,5.7,23.35,19.22,23.35,35Z"/>
</svg>