<?xml version="1.0" encoding="UTF-8"?>
<svg id="Layer_1" xmlns="http://www.w3.org/2000/svg" version="1.1" viewBox="0 0 128 128">
  <!-- Generator: Adobe Illustrator 29.4.0, SVG Export Plug-In . SVG Version: 2.1.0 Build 152)  -->
  <defs>
    <style>
      .st0 {
        stroke-width: 5.25px;
      }

      .st0, .st1, .st2, .st3 {
        fill: none;
        stroke: #000;
        stroke-miterlimit: 10;
      }

      .st1 {
        stroke-width: 5.23px;
      }

      .st4 {
        display: none;
      }

      .st5 {
        fill: #523e2d;
      }

      .st2 {
        stroke-width: 4.85px;
      }

      .st6 {
        fill: #67bd48;
      }

      .st3 {
        stroke-width: 4.43px;
      }
    </style>
  </defs>
  <g>
    <path class="st6" d="M66.21,85.1l-22.09,23.76c-8.13,8.73-18.46,14.4-29.88,16.36l-11.06,1.9,1.86-11.83c1.09-6.9,3.25-13.41,6.4-19.35l54.76-10.83Z"/>
    <path class="st5" d="M127.62,20.09c0-5.21-2.03-10.11-5.72-13.79-3.68-3.68-8.58-5.71-13.78-5.71s-10.12,2.03-13.79,5.71l-17.8,17.81-1.6-1.6c-3.77-3.77-9.91-3.77-13.68,0l-1.81,1.81c-3.77,3.77-3.77,9.91,0,13.68l1.25,1.25-44.54,44.55c-7.56,7.55-12.5,17.14-14.3,27.73L.07,122.04c-.27,1.61.26,3.27,1.41,4.43.97.98,2.28,1.52,3.63,1.52.27,0,.53-.02.79-.06l10.56-1.69c10.71-1.72,20.42-6.65,28.07-14.3l44.43-44.43.42.42c1.89,1.89,4.36,2.84,6.84,2.84s4.95-.95,6.84-2.84l1.81-1.8c1.82-1.83,2.82-4.26,2.82-6.84s-1-5.01-2.82-6.84l-.77-.77,17.8-17.8c3.69-3.69,5.72-8.58,5.72-13.79ZM40.19,107.61c-6.72,6.71-15.25,11.06-24.7,12.57l-9.14,1.46,1.54-9.09c.9-5.3,2.68-10.31,5.29-14.87l45.26-8.32-18.25,18.25ZM66.03,81.77l-47.79,8.78c.7-.84,1.46-1.65,2.24-2.43l44.55-44.54,19.6,19.6-18.59,18.59Z"/>
  </g>
  <g class="st4">
    <rect class="st2" x="55.67" y="40.88" width="48" height="13.9" rx="5.86" ry="5.86" transform="translate(57.16 -42.32) rotate(45)"/>
    <path class="st3" d="M98.55,10.41h0c8,0,14.5,6.5,14.5,14.5v24h-29v-24c0-8,6.5-14.5,14.5-14.5Z" transform="translate(49.84 -61) rotate(45)"/>
    <path class="st0" d="M64.85,42.85l-39.89,39.89c-6.06,6.06-10.08,13.86-11.52,22.35l-1.53,9c-.2,1.17.82,2.2,2,2.02l9.05-1.44c8.59-1.37,16.49-5.4,22.6-11.51l39.79-39.79"/>
    <line class="st1" x1="18.5" y1="90.5" x2="67.5" y2="81.5"/>
  </g>
</svg>