<?xml version="1.0" encoding="UTF-8"?>
<svg id="Layer_1" xmlns="http://www.w3.org/2000/svg" version="1.1" viewBox="0 0 957.86 270.82">
  <!-- Generator: Adobe Illustrator 29.4.0, SVG Export Plug-In . SVG Version: 2.1.0 Build 152)  -->
  <defs>
    <style>
      .st0 {
        fill: #65bc47;
      }

      .st1 {
        fill: #63bc46;
      }

      .st2 {
        fill: #523e2d;
      }
    </style>
  </defs>
  <g>
    <path class="st2" d="M168.02,118.89h21.7v-21.7h86.81v21.7h21.7v65.11h-21.7v21.7h-65.11v65.11h-43.41V118.89ZM211.43,162.3h43.41v-21.7h-43.41v21.7Z"/>
    <path class="st2" d="M319.95,141.22h32.4v129.6h-32.4v-129.6Z"/>
    <path class="st2" d="M368.54,141.22h32.4v32.4h32.4v-32.4h32.4v48.6h-16.2v32.4h16.2v48.6h-32.4v-32.4h-32.4v32.4h-32.4v-48.6h16.2v-32.4h-16.2v-48.6Z"/>
    <path class="st1" d="M481.94,97.19h43.41v65.11h43.41v-65.11h43.41v86.81h-21.7v21.7h-21.7v65.11h-43.41v-65.11h-21.7v-21.7h-21.7v-86.81Z"/>
    <path class="st1" d="M666.27,270.82h-32.4v-113.4h16.2v-16.2h64.8v16.2h16.2v113.4h-32.4v-48.6h-32.4v48.6ZM698.66,189.82v-16.2h-32.4v16.2h32.4Z"/>
    <path class="st1" d="M795.86,222.22h-16.2v48.6h-32.4v-113.4h16.2v-16.2h64.8v16.2h16.2v48.6h-16.2v16.2h16.2v48.6h-32.4v-32.4h-16.2v-16.2ZM779.66,189.82h32.4v-16.2h-32.4v16.2Z"/>
    <path class="st1" d="M860.66,141.22h81v16.2h16.2v97.2h-16.2v16.2h-81v-129.6ZM893.07,238.41h32.4v-64.8h-32.4v64.8Z"/>
  </g>
  <rect class="st0" y="76.2" width="24.4" height="48.8"/>
  <rect class="st0" x="48.8" y="3" width="24.4" height="24.4"/>
  <polygon class="st0" points="73.2 100.6 97.6 100.6 97.6 125 73.2 125 73.2 173.8 48.8 173.8 48.8 149.4 24.4 149.4 24.4 125 48.8 125 48.8 51.8 73.2 51.8 73.2 100.6"/>
  <rect class="st0" x="97.6" y="76.2" width="24.4" height="24.4"/>
  <rect class="st0" x="73.2" y="27.4" width="24.4" height="24.4"/>
  <polygon class="st2" points="122 198.2 122 247 97.6 247 97.6 271.4 24.4 271.4 24.4 247 48.8 247 48.8 222.6 24.4 222.6 24.4 247 0 247 0 198.2 24.4 198.2 24.4 173.8 97.6 173.8 97.6 198.2 122 198.2"/>
</svg>