<?xml version="1.0" encoding="UTF-8"?>
<svg id="Layer_1" xmlns="http://www.w3.org/2000/svg" version="1.1" viewBox="0 0 122 268.4">
  <!-- Generator: Adobe Illustrator 29.4.0, SVG Export Plug-In . SVG Version: 2.1.0 Build 152)  -->
  <defs>
    <style>
      .st0 {
        fill: #65bc47;
      }

      .st1 {
        fill: #523e2d;
      }
    </style>
  </defs>
  <rect class="st0" y="73.2" width="24.4" height="48.8"/>
  <rect class="st0" x="48.8" width="24.4" height="24.4"/>
  <polygon class="st0" points="73.2 97.6 97.6 97.6 97.6 122 73.2 122 73.2 170.8 48.8 170.8 48.8 146.4 24.4 146.4 24.4 122 48.8 122 48.8 48.8 73.2 48.8 73.2 97.6"/>
  <rect class="st0" x="97.6" y="73.2" width="24.4" height="24.4"/>
  <rect class="st0" x="73.2" y="24.4" width="24.4" height="24.4"/>
  <polygon class="st1" points="122 195.2 122 244 97.6 244 97.6 268.4 24.4 268.4 24.4 244 48.8 244 48.8 219.6 24.4 219.6 24.4 244 0 244 0 195.2 24.4 195.2 24.4 170.8 97.6 170.8 97.6 195.2 122 195.2"/>
</svg>