<?xml version="1.0" encoding="UTF-8"?>
<svg id="Layer_1" xmlns="http://www.w3.org/2000/svg" version="1.1" viewBox="0 0 128 128">
  <!-- Generator: Adobe Illustrator 29.4.0, SVG Export Plug-In . SVG Version: 2.1.0 Build 152)  -->
  <defs>
    <style>
      .st0 {
        stroke-width: 5.36px;
      }

      .st0, .st1 {
        fill: none;
        stroke: #231f20;
        stroke-miterlimit: 10;
      }

      .st1 {
        stroke-width: 5px;
      }

      .st1, .st2, .st3 {
        display: none;
      }

      .st4, .st3 {
        fill: #523e2d;
      }

      .st5 {
        fill: #67bd48;
      }
    </style>
  </defs>
  <path class="st3" d="M77.68-12.08c-3.68-3.68-8.58-5.71-13.8-5.71-5.2,0-10.1,2.03-13.78,5.71s-5.72,8.59-5.72,13.79v25.18s-2.25,0-2.25,0c-5.33,0-9.67,4.34-9.67,9.67v2.56c0,5.33,4.34,9.67,9.67,9.67h1.77s0,62.99,0,62.99c0,10.69,3.28,20.96,9.5,29.72l6.17,8.7c.95,1.33,2.49,2.13,4.13,2.14,1.38,0,2.68-.54,3.64-1.49.19-.19.35-.39.52-.6l6.27-8.67c6.36-8.79,9.74-19.15,9.74-29.96v-62.84h.59c2.67,0,5.09-1.08,6.84-2.83s2.83-4.17,2.83-6.84v-2.55c0-2.58-1.01-5.01-2.83-6.83s-4.25-2.83-6.83-2.84h-1.09s0-25.17,0-25.17c0-5.22-2.02-10.11-5.71-13.8ZM77.74,111.62c0,9.5-2.96,18.61-8.57,26.35l-5.43,7.49-5.34-7.52c-3.11-4.38-5.39-9.19-6.78-14.25l26.12-37.89v25.81ZM77.74,75.08l-27.59,40c-.1-1.09-.13-2.2-.13-3.3v-62.99s27.72,0,27.72,0v26.29Z"/>
  <line class="st1" x1="64" y1="105.5" x2="64" y2="172.5"/>
  <path class="st5" d="M124.58,33.24l-12.52,12.87-29.05-29.86,12.52-12.87c1.39-1.41,3.63-1.41,5.01,0l24.04,24.72c1.39,1.41,1.39,3.73,0,5.14Z"/>
  <path class="st4" d="M125.47,22.96L105.38,2.87c-3.47-3.47-9.1-3.46-12.56,0l-10.46,10.46-10.46,10.46L11.2,84.5c-2.7,2.7-4.6,6.1-5.49,9.81L.25,117.07c-.72,3.01.14,6.11,2.31,8.31,1.7,1.72,3.95,2.64,6.3,2.64.66,0,1.33-.07,1.98-.22l23.01-5.2c3.82-.85,7.31-2.78,10.08-5.55l60.61-60.61,10.46-10.46,10.46-10.45c3.46-3.47,3.46-9.1,0-12.56ZM40.2,112.41l-24.28-24.26L82.36,21.7l24.28,24.26L40.2,112.41ZM121.28,31.33l-10.46,10.46-24.28-24.28,10.46-10.46c1.16-1.15,3.03-1.15,4.19,0l20.09,20.1c1.16,1.15,1.16,3.03,0,4.18Z"/>
  <g class="st2">
    <polygon class="st0" points="81 115.75 81 29 47 29 47 115.75 63.71 152.33 81 115.75"/>
    <polyline class="st0" points="81 29 81 -1 47 -1 47 29"/>
    <line class="st0" x1="47" y1="115.75" x2="81" y2="115.75"/>
  </g>
  <g class="st2">
    <g>
      <polygon class="st0" points="64 143.07 47.25 115.75 47.25 29 81.25 29 81.25 115.75 64 143.07"/>
      <polyline class="st0" points="81.25 39 81.25 9 47.25 9 47.25 39"/>
    </g>
    <line class="st0" x1="47" y1="115.5" x2="81" y2="115.5"/>
  </g>
</svg>